<svg xmlns="http://www.w3.org/2000/svg" style="display: none;">
<symbol id="btn-go" viewBox="0 0 25.001 25"><path d="M-3589.751-7955.25a12.417 12.417 0 0 1-8.839-3.661 12.415 12.415 0 0 1-3.661-8.838 12.418 12.418 0 0 1 3.661-8.839 12.414 12.414 0 0 1 8.839-3.662 12.417 12.417 0 0 1 8.839 3.662 12.417 12.417 0 0 1 3.662 8.839 12.414 12.414 0 0 1-3.662 8.838 12.419 12.419 0 0 1-8.839 3.661zm1-17.4a1.1 1.1 0 0 0-.782.321l-3.008 3.01-1.564 1.564 1.564 1.564 3.008 3.008a1.1 1.1 0 0 0 .782.323 1.1 1.1 0 0 0 .782-.323 1.1 1.1 0 0 0 .323-.782 1.1 1.1 0 0 0-.323-.782l-3.01-3.008 3.01-3.01a1.1 1.1 0 0 0 .323-.782 1.1 1.1 0 0 0-.323-.782 1.1 1.1 0 0 0-.781-.316z" transform="rotate(180 -1788.625 -3977.625)"/></symbol>
<symbol id="btn-message" viewBox="0 0 19.721 17.39"><defs>
        
    </defs>
    <path d="M0 6.3L6 11 18.9.777 8.113 12.687l6 4.7L19.721 0z" style="fill:#f00"/>
    <path d="M13.59 32.739l2.5-3.236L12.9 27z" transform="translate(-7.333 -15.349)" style="fill:#f00"/></symbol>
<symbol id="btn_message" viewBox="0 0 19.721 17.39"><defs>
        
    </defs>
    <path d="M0 6.3L6 11 18.9.777 8.113 12.687l6 4.7L19.721 0z" style="fill:#fff"/>
    <path d="M13.59 32.739l2.5-3.236L12.9 27z" transform="translate(-7.333 -15.349)" style="fill:#fff"/></symbol>
<symbol id="test_complex" viewBox="0 0 17 17"><defs>
        
    </defs>
    <g transform="translate(-1376 -411)">
        <g data-name="Group 9887" transform="translate(67 -48)">
            <g data-name="Group 9886" transform="translate(-1.265 3.735)">
                <g data-name="Group 9705" transform="translate(1312.211 455.503)">
                    <g>
                        <path data-name="Path 4927" d="M13.683 30.413a2.425 2.425 0 0 1-1.777-.734.521.521 0 0 1 .087-.742.63.63 0 0 1 .807.023 1.286 1.286 0 0 0 1.749 0 .618.618 0 0 1 .576-.215.582.582 0 0 1 .468.377.521.521 0 0 1-.15.557 2.424 2.424 0 0 1-1.76.734z" transform="translate(-7.169 -13.924)" style="fill:#e84989"/>
                        <path data-name="Path 4928" d="M15.909 8.008a.573.573 0 0 0-.594.55v4a.573.573 0 0 1-.594.55H5.247a.619.619 0 0 1-.422-.163.529.529 0 0 1-.172-.392V8.168A4.81 4.81 0 0 1 6.641 4.33a5.672 5.672 0 0 1 4.476-.985.591.591 0 0 0 .657-.434.548.548 0 0 0-.418-.639 7.325 7.325 0 0 0-.777-.108V.5a.537.537 0 0 0-.278-.52.635.635 0 0 0-.627 0A.537.537 0 0 0 9.4.5v1.68a6.252 6.252 0 0 0-5.93 5.988v4.381a1.714 1.714 0 0 0 1.777 1.644h9.474a1.714 1.714 0 0 0 1.779-1.644V8.558a.573.573 0 0 0-.589-.55z" transform="translate(-3.47 .103)" style="fill:#e84989"/>
                        <path data-name="Path 4929" d="M21.6 9.731a2.571 2.571 0 0 1-2.67-2.466 2.674 2.674 0 0 1 5.331 0A2.577 2.577 0 0 1 21.6 9.731zm0-3.837a1.43 1.43 0 0 0-1.483 1.371 1.487 1.487 0 0 0 2.965 0A1.43 1.43 0 0 0 21.6 5.894z" transform="translate(-10.345 -2.282)" style="fill:#e84989"/>
                    </g>
                </g>
                <g data-name="Group 8883" transform="translate(1310 455)">
                    <path data-name="Rectangle 3318" transform="translate(.265 .265)" style="fill:none" d="M0 0h17v17H0z"/>
                </g>
            </g>
        </g>
        <path data-name="Line 632" d="M15 13.5a.5.5 0 0 1-.327-.122l-15-13a.5.5 0 0 1-.05-.705.5.5 0 0 1 .705-.05l15 13A.5.5 0 0 1 15 13.5z" transform="translate(1377.5 413.5)" style="fill:#e84989"/>
    </g></symbol>
<symbol id="working_icon" viewBox="0 0 24 24"><g clip-path="url(#working_icon-clip0_712_10975)">
<path d="M9.84375 16.0469V19.1178C9.84389 19.2224 9.877 19.3242 9.93836 19.4088C9.99973 19.4934 10.0862 19.5565 10.1855 19.5891C10.2848 19.6217 10.3919 19.6221 10.4915 19.5903C10.591 19.5586 10.678 19.4962 10.7401 19.4121L12.5359 16.9683L9.84375 16.0469Z" fill="white"/>
<path d="M19.7355 4.47592C19.6604 4.42207 19.5718 4.39022 19.4796 4.38396C19.3875 4.37769 19.2954 4.39725 19.2137 4.44044L4.3212 12.2196C4.23517 12.2646 4.16421 12.3338 4.1171 12.4187C4.06998 12.5036 4.04878 12.6004 4.0561 12.6972C4.06343 12.794 4.09897 12.8865 4.15833 12.9634C4.21768 13.0402 4.29825 13.098 4.39007 13.1295L8.5306 14.5455L17.3501 7.00427L10.5236 15.2269L17.4638 17.5987C17.5156 17.616 17.5699 17.6248 17.6245 17.6248C17.7435 17.6251 17.8587 17.5826 17.9489 17.505C18.0391 17.4274 18.0984 17.3199 18.116 17.2022L19.9379 4.95383C19.9513 4.86316 19.9393 4.77056 19.9034 4.68623C19.8675 4.6019 19.8101 4.52912 19.7355 4.47592Z" fill="white"/>
</g>
<defs>
<clipPath id="working_icon-clip0_712_10975">
<rect fill="white"/>
</clipPath>
</defs></symbol>
</svg>