<svg xmlns="http://www.w3.org/2000/svg" width="0" height="0" aria-hidden="true" focusable="false" style="position:absolute;width:0;height:0;overflow:hidden;">
<symbol id="btn-go" viewBox="0 0 25.001 25"><path d="M-3589.751-7955.25a12.417 12.417 0 0 1-8.839-3.661 12.415 12.415 0 0 1-3.661-8.838 12.418 12.418 0 0 1 3.661-8.839 12.414 12.414 0 0 1 8.839-3.662 12.417 12.417 0 0 1 8.839 3.662 12.417 12.417 0 0 1 3.662 8.839 12.414 12.414 0 0 1-3.662 8.838 12.419 12.419 0 0 1-8.839 3.661zm1-17.4a1.1 1.1 0 0 0-.782.321l-3.008 3.01-1.564 1.564 1.564 1.564 3.008 3.008a1.1 1.1 0 0 0 .782.323 1.1 1.1 0 0 0 .782-.323 1.1 1.1 0 0 0 .323-.782 1.1 1.1 0 0 0-.323-.782l-3.01-3.008 3.01-3.01a1.1 1.1 0 0 0 .323-.782 1.1 1.1 0 0 0-.323-.782 1.1 1.1 0 0 0-.781-.316z" transform="rotate(180 -1788.625 -3977.625)"/></symbol>
<symbol id="btn-message" viewBox="0 0 19.721 17.39"><defs>
        
    </defs>
    <path d="M0 6.3L6 11 18.9.777 8.113 12.687l6 4.7L19.721 0z" style="fill:#f00"/>
    <path d="M13.59 32.739l2.5-3.236L12.9 27z" transform="translate(-7.333 -15.349)" style="fill:#f00"/></symbol>
<symbol id="btn_message" viewBox="0 0 19.721 17.39"><defs>
        
    </defs>
    <path d="M0 6.3L6 11 18.9.777 8.113 12.687l6 4.7L19.721 0z" style="fill:#fff"/>
    <path d="M13.59 32.739l2.5-3.236L12.9 27z" transform="translate(-7.333 -15.349)" style="fill:#fff"/></symbol>
<symbol id="gradient-star" viewBox="0 0 20 20"><defs>
    <linearGradient id="gradient-star-paint0_linear_14002_14859" x1="19.9879" y1="6.54398" x2="3.98097" y2="17.6752" gradientUnits="userSpaceOnUse">
      <stop stop-color="#FFCF45"/>
      <stop offset="1" stop-color="#FFB92A"/>
    </linearGradient>
  </defs>
  <path d="M9.13674 2.51032C9.52284 1.8529 10.4772 1.8529 10.8633 2.51031L13.0071 6.16059C13.1486 6.40162 13.3853 6.5724 13.6595 6.63127L17.8164 7.52401C18.5668 7.68516 18.8625 8.59311 18.35 9.16202L15.5202 12.3029C15.3322 12.5115 15.2412 12.7895 15.2697 13.0683L15.6979 17.2627C15.7754 18.0214 15.0025 18.5815 14.3011 18.275L10.4019 16.571C10.1458 16.459 9.85422 16.459 9.59806 16.571L5.77175 18.2432C5.05446 18.5566 4.27008 17.9645 4.37964 17.1923L4.72213 14.7783C4.75558 14.5424 4.87285 14.3264 5.05265 14.1693L9.73658 10.0763C9.8122 10.0102 9.75349 9.88684 9.65424 9.90324L3.87202 10.8588C3.53979 10.9137 3.20212 10.7985 2.97363 10.5522L1.68832 9.16659C1.16312 8.60042 1.45541 7.68039 2.21209 7.51788L6.34053 6.63127C6.61467 6.5724 6.85138 6.40162 6.99293 6.16059L9.13674 2.51032Z" fill="url(#gradient-star-paint0_linear_14002_14859)"/>
  <path d="M9.13673 2.5105C9.52282 1.85309 10.4772 1.85309 10.8633 2.5105L13.0068 6.16038C13.1483 6.40131 13.3852 6.57202 13.6592 6.63096L17.8164 7.52447C18.5667 7.68567 18.8622 8.59288 18.3496 9.16177L15.5205 12.3032L15.4541 12.3839C15.3111 12.5807 15.2446 12.8242 15.2695 13.0683L15.6982 17.2627C15.7757 18.0213 15.0021 18.5813 14.3008 18.2748L10.4024 16.5714C10.1462 16.4595 9.85383 16.4595 9.59766 16.5714L5.77149 18.2427C5.099 18.5366 4.36757 18.0349 4.36915 17.3346L4.37989 17.1927L4.72169 14.7785C4.75096 14.5722 4.845 14.381 4.98829 14.2312L5.05274 14.1689L9.73634 10.0767C9.81195 10.0106 9.75356 9.8872 9.6543 9.90361L3.87208 10.8584L3.74708 10.872C3.45688 10.8832 3.17349 10.7675 2.97364 10.5521L1.68848 9.16663C1.16332 8.6005 1.45533 7.68024 2.21192 7.51767L6.34083 6.63096C6.58049 6.57941 6.79174 6.44267 6.93555 6.24789L6.99317 6.16038L9.13673 2.5105ZM7.85645 6.66305C7.57341 7.14498 7.09986 7.48637 6.55177 7.6042L2.42286 8.4909L3.70802 9.87638L9.49024 8.92065C10.5819 8.74023 11.2279 10.0974 10.3965 10.8243L5.71192 14.9176L5.37012 17.3317L9.1963 15.6594C9.70856 15.4356 10.2915 15.4356 10.8037 15.6594L14.7031 17.3638L14.2744 13.1694C14.2175 12.6118 14.3995 12.0554 14.7754 11.6381L17.6055 8.49771L13.4482 7.6042C12.9001 7.48637 12.4266 7.14498 12.1436 6.66305L10 3.01316L7.85645 6.66305Z" fill="#E39C4C"/></symbol>
<symbol id="icon-bought" viewBox="0 0 23 12"><g transform="translate(-398 -790)">
        <!-- 背景: 繼承外部 fill 屬性 -->
        <rect data-name="Rectangle 3378" width="23" height="12" rx="3" transform="translate(398 790)" />
        <!-- 文字 buy: 使用 color 屬性改寫文字顏色 -->
        <path style="fill: currentColor;" data-name="Path 4849" d="M.659-6.442h2.575a7.439 7.439 0 0 1 1.14.064 1.676 1.676 0 0 1 .672.266 1.654 1.654 0 0 1 .494.538 1.458 1.458 0 0 1 .2.754 1.5 1.5 0 0 1-.24.83 1.511 1.511 0 0 1-.661.567 1.7 1.7 0 0 1 .905.584 1.551 1.551 0 0 1 .316.971 1.915 1.915 0 0 1-.2.855 1.722 1.722 0 0 1-.558.664 1.843 1.843 0 0 1-.872.305Q4.1-.009 2.852 0H.659zM1.96-5.37v1.49h.853q.76 0 .945-.022a.86.86 0 0 0 .525-.231.68.68 0 0 0 .191-.5.707.707 0 0 0-.165-.486.746.746 0 0 0-.49-.226q-.194-.025-1.112-.025zm0 2.562v1.723h1.2a5.884 5.884 0 0 0 .892-.04.806.806 0 0 0 .472-.257.791.791 0 0 0 .182-.547.84.84 0 0 0-.141-.492.8.8 0 0 0-.406-.294 4.419 4.419 0 0 0-1.149-.093zm5.186-3.634h1.3v3.489a7.238 7.238 0 0 0 .048 1.077 1.043 1.043 0 0 0 .4.635A1.386 1.386 0 0 0 9.751-1a1.311 1.311 0 0 0 .835-.226.894.894 0 0 0 .338-.556 7.248 7.248 0 0 0 .057-1.094v-3.566h1.3v3.384a8.7 8.7 0 0 1-.105 1.639 1.814 1.814 0 0 1-.389.809 1.965 1.965 0 0 1-.758.525 3.3 3.3 0 0 1-1.239.2A3.568 3.568 0 0 1 8.391-.1a2 2 0 0 1-.754-.554 1.775 1.775 0 0 1-.365-.714 7.824 7.824 0 0 1-.127-1.635zM15.346 0v-2.711l-2.36-3.731h1.525l1.516 2.549 1.485-2.549h1.5L16.642-2.7V0z" transform="translate(399.665 799.166)"/>
    </g></symbol>
<symbol id="test_complex" viewBox="0 0 17 17"><defs>
        
    </defs>
    <g transform="translate(-1376 -411)">
        <g data-name="Group 9887" transform="translate(67 -48)">
            <g data-name="Group 9886" transform="translate(-1.265 3.735)">
                <g data-name="Group 9705" transform="translate(1312.211 455.503)">
                    <g>
                        <path data-name="Path 4927" d="M13.683 30.413a2.425 2.425 0 0 1-1.777-.734.521.521 0 0 1 .087-.742.63.63 0 0 1 .807.023 1.286 1.286 0 0 0 1.749 0 .618.618 0 0 1 .576-.215.582.582 0 0 1 .468.377.521.521 0 0 1-.15.557 2.424 2.424 0 0 1-1.76.734z" transform="translate(-7.169 -13.924)" style="fill:#e84989"/>
                        <path data-name="Path 4928" d="M15.909 8.008a.573.573 0 0 0-.594.55v4a.573.573 0 0 1-.594.55H5.247a.619.619 0 0 1-.422-.163.529.529 0 0 1-.172-.392V8.168A4.81 4.81 0 0 1 6.641 4.33a5.672 5.672 0 0 1 4.476-.985.591.591 0 0 0 .657-.434.548.548 0 0 0-.418-.639 7.325 7.325 0 0 0-.777-.108V.5a.537.537 0 0 0-.278-.52.635.635 0 0 0-.627 0A.537.537 0 0 0 9.4.5v1.68a6.252 6.252 0 0 0-5.93 5.988v4.381a1.714 1.714 0 0 0 1.777 1.644h9.474a1.714 1.714 0 0 0 1.779-1.644V8.558a.573.573 0 0 0-.589-.55z" transform="translate(-3.47 .103)" style="fill:#e84989"/>
                        <path data-name="Path 4929" d="M21.6 9.731a2.571 2.571 0 0 1-2.67-2.466 2.674 2.674 0 0 1 5.331 0A2.577 2.577 0 0 1 21.6 9.731zm0-3.837a1.43 1.43 0 0 0-1.483 1.371 1.487 1.487 0 0 0 2.965 0A1.43 1.43 0 0 0 21.6 5.894z" transform="translate(-10.345 -2.282)" style="fill:#e84989"/>
                    </g>
                </g>
                <g data-name="Group 8883" transform="translate(1310 455)">
                    <path data-name="Rectangle 3318" transform="translate(.265 .265)" style="fill:none" d="M0 0h17v17H0z"/>
                </g>
            </g>
        </g>
        <path data-name="Line 632" d="M15 13.5a.5.5 0 0 1-.327-.122l-15-13a.5.5 0 0 1-.05-.705.5.5 0 0 1 .705-.05l15 13A.5.5 0 0 1 15 13.5z" transform="translate(1377.5 413.5)" style="fill:#e84989"/>
    </g></symbol>
<symbol id="working_icon" viewBox="0 0 24 24"><g clip-path="url(#working_icon-clip0_712_10975)">
<path d="M9.84375 16.0469V19.1178C9.84389 19.2224 9.877 19.3242 9.93836 19.4088C9.99973 19.4934 10.0862 19.5565 10.1855 19.5891C10.2848 19.6217 10.3919 19.6221 10.4915 19.5903C10.591 19.5586 10.678 19.4962 10.7401 19.4121L12.5359 16.9683L9.84375 16.0469Z" fill="white"/>
<path d="M19.7355 4.47592C19.6604 4.42207 19.5718 4.39022 19.4796 4.38396C19.3875 4.37769 19.2954 4.39725 19.2137 4.44044L4.3212 12.2196C4.23517 12.2646 4.16421 12.3338 4.1171 12.4187C4.06998 12.5036 4.04878 12.6004 4.0561 12.6972C4.06343 12.794 4.09897 12.8865 4.15833 12.9634C4.21768 13.0402 4.29825 13.098 4.39007 13.1295L8.5306 14.5455L17.3501 7.00427L10.5236 15.2269L17.4638 17.5987C17.5156 17.616 17.5699 17.6248 17.6245 17.6248C17.7435 17.6251 17.8587 17.5826 17.9489 17.505C18.0391 17.4274 18.0984 17.3199 18.116 17.2022L19.9379 4.95383C19.9513 4.86316 19.9393 4.77056 19.9034 4.68623C19.8675 4.6019 19.8101 4.52912 19.7355 4.47592Z" fill="white"/>
</g>
<defs>
<clipPath id="working_icon-clip0_712_10975">
<rect width="24" height="24" fill="white"/>
</clipPath>
</defs></symbol>
</svg>