<svg width="20" height="20" viewBox="0 0 20 20" xmlns="http://www.w3.org/2000/svg">
  <defs>
    <linearGradient id="paint0_linear_14002_14859" x1="19.9879" y1="6.54398" x2="3.98097" y2="17.6752" gradientUnits="userSpaceOnUse">
      <stop stop-color="#FFCF45"/>
      <stop offset="1" stop-color="#FFB92A"/>
    </linearGradient>
  </defs>
  <path d="M9.13674 2.51032C9.52284 1.8529 10.4772 1.8529 10.8633 2.51031L13.0071 6.16059C13.1486 6.40162 13.3853 6.5724 13.6595 6.63127L17.8164 7.52401C18.5668 7.68516 18.8625 8.59311 18.35 9.16202L15.5202 12.3029C15.3322 12.5115 15.2412 12.7895 15.2697 13.0683L15.6979 17.2627C15.7754 18.0214 15.0025 18.5815 14.3011 18.275L10.4019 16.571C10.1458 16.459 9.85422 16.459 9.59806 16.571L5.77175 18.2432C5.05446 18.5566 4.27008 17.9645 4.37964 17.1923L4.72213 14.7783C4.75558 14.5424 4.87285 14.3264 5.05265 14.1693L9.73658 10.0763C9.8122 10.0102 9.75349 9.88684 9.65424 9.90324L3.87202 10.8588C3.53979 10.9137 3.20212 10.7985 2.97363 10.5522L1.68832 9.16659C1.16312 8.60042 1.45541 7.68039 2.21209 7.51788L6.34053 6.63127C6.61467 6.5724 6.85138 6.40162 6.99293 6.16059L9.13674 2.51032Z" fill="url(#paint0_linear_14002_14859)"/>
  <path d="M9.13673 2.5105C9.52282 1.85309 10.4772 1.85309 10.8633 2.5105L13.0068 6.16038C13.1483 6.40131 13.3852 6.57202 13.6592 6.63096L17.8164 7.52447C18.5667 7.68567 18.8622 8.59288 18.3496 9.16177L15.5205 12.3032L15.4541 12.3839C15.3111 12.5807 15.2446 12.8242 15.2695 13.0683L15.6982 17.2627C15.7757 18.0213 15.0021 18.5813 14.3008 18.2748L10.4024 16.5714C10.1462 16.4595 9.85383 16.4595 9.59766 16.5714L5.77149 18.2427C5.099 18.5366 4.36757 18.0349 4.36915 17.3346L4.37989 17.1927L4.72169 14.7785C4.75096 14.5722 4.845 14.381 4.98829 14.2312L5.05274 14.1689L9.73634 10.0767C9.81195 10.0106 9.75356 9.8872 9.6543 9.90361L3.87208 10.8584L3.74708 10.872C3.45688 10.8832 3.17349 10.7675 2.97364 10.5521L1.68848 9.16663C1.16332 8.6005 1.45533 7.68024 2.21192 7.51767L6.34083 6.63096C6.58049 6.57941 6.79174 6.44267 6.93555 6.24789L6.99317 6.16038L9.13673 2.5105ZM7.85645 6.66305C7.57341 7.14498 7.09986 7.48637 6.55177 7.6042L2.42286 8.4909L3.70802 9.87638L9.49024 8.92065C10.5819 8.74023 11.2279 10.0974 10.3965 10.8243L5.71192 14.9176L5.37012 17.3317L9.1963 15.6594C9.70856 15.4356 10.2915 15.4356 10.8037 15.6594L14.7031 17.3638L14.2744 13.1694C14.2175 12.6118 14.3995 12.0554 14.7754 11.6381L17.6055 8.49771L13.4482 7.6042C12.9001 7.48637 12.4266 7.14498 12.1436 6.66305L10 3.01316L7.85645 6.66305Z" fill="#E39C4C"/>
</svg>

