<svg width="24" height="24" viewBox="0 0 24 24" fill="none" xmlns="http://www.w3.org/2000/svg">
<g clip-path="url(#clip0_712_10975)">
<path d="M9.84375 16.0469V19.1178C9.84389 19.2224 9.877 19.3242 9.93836 19.4088C9.99973 19.4934 10.0862 19.5565 10.1855 19.5891C10.2848 19.6217 10.3919 19.6221 10.4915 19.5903C10.591 19.5586 10.678 19.4962 10.7401 19.4121L12.5359 16.9683L9.84375 16.0469Z" fill="white"/>
<path d="M19.7355 4.47592C19.6604 4.42207 19.5718 4.39022 19.4796 4.38396C19.3875 4.37769 19.2954 4.39725 19.2137 4.44044L4.3212 12.2196C4.23517 12.2646 4.16421 12.3338 4.1171 12.4187C4.06998 12.5036 4.04878 12.6004 4.0561 12.6972C4.06343 12.794 4.09897 12.8865 4.15833 12.9634C4.21768 13.0402 4.29825 13.098 4.39007 13.1295L8.5306 14.5455L17.3501 7.00427L10.5236 15.2269L17.4638 17.5987C17.5156 17.616 17.5699 17.6248 17.6245 17.6248C17.7435 17.6251 17.8587 17.5826 17.9489 17.505C18.0391 17.4274 18.0984 17.3199 18.116 17.2022L19.9379 4.95383C19.9513 4.86316 19.9393 4.77056 19.9034 4.68623C19.8675 4.6019 19.8101 4.52912 19.7355 4.47592Z" fill="white"/>
</g>
<defs>
<clipPath id="clip0_712_10975">
<rect width="24" height="24" fill="white"/>
</clipPath>
</defs>
</svg> 