<svg xmlns="http://www.w3.org/2000/svg" style="display: none;">
<symbol id="btn-go" viewBox="0 0 25.001 25">
    <path d="M-3589.751-7955.25a12.417 12.417 0 0 1-8.839-3.661 12.415 12.415 0 0 1-3.661-8.838 12.418 12.418 0 0 1 3.661-8.839 12.414 12.414 0 0 1 8.839-3.662 12.417 12.417 0 0 1 8.839 3.662 12.417 12.417 0 0 1 3.662 8.839 12.414 12.414 0 0 1-3.662 8.838 12.419 12.419 0 0 1-8.839 3.661zm1-17.4a1.1 1.1 0 0 0-.782.321l-3.008 3.01-1.564 1.564 1.564 1.564 3.008 3.008a1.1 1.1 0 0 0 .782.323 1.1 1.1 0 0 0 .782-.323 1.1 1.1 0 0 0 .323-.782 1.1 1.1 0 0 0-.323-.782l-3.01-3.008 3.01-3.01a1.1 1.1 0 0 0 .323-.782 1.1 1.1 0 0 0-.323-.782 1.1 1.1 0 0 0-.781-.316z" transform="rotate(180 -1788.625 -3977.625)"/>

</symbol>
</svg>